<?xml version="1.0" encoding="utf-8"?>
<!-- Generator: Adobe Illustrator 18.1.0, SVG Export Plug-In . SVG Version: 6.00 Build 0)  -->
<svg version="1.1" id="Livello_1" xmlns="http://www.w3.org/2000/svg" xmlns:xlink="http://www.w3.org/1999/xlink" x="0px" y="0px"
	 viewBox="0 0 102 102" width="102" height="102" enable-background="new 0 0 102 102" xml:space="preserve">
<g>
	<path d="M51,101c27.6,0,50-22.4,50-50S78.6,1,51,1C23.4,1,1,23.4,1,51S23.4,101,51,101"/>
	<path fill="#FFFFFF" d="M32.1,49.5h7.3v-2.9c0-2.2-1.2-3.3-3.6-3.3c-2.4,0-3.7,1.1-3.7,3.3V49.5z M41.2,53.3v2.1
		c0,3.3-1.8,4.9-5.5,4.9c-3.7,0-5.5-1.6-5.5-4.9v-8.8c0-3.3,1.8-4.9,5.5-4.9c3.7,0,5.5,1.6,5.5,4.9v4.7h-9.1v4.2
		c0,2.2,1.2,3.3,3.7,3.3c2.4,0,3.6-1.1,3.6-3.3v-2.1H41.2z"/>
	<path fill="#FFFFFF" d="M55.6,48.3h-1.9v-1.7c0-2.2-1.2-3.3-3.6-3.3c-2.4,0-3.6,1.1-3.6,3.4c0,0.8,0.1,1.3,0.4,1.7
		c0.3,0.4,0.7,0.7,1.4,0.9l4,1.3c1.2,0.4,2.1,1,2.6,1.7c0.5,0.7,0.7,1.7,0.7,3.1c0,3.3-1.8,4.9-5.5,4.9c-3.7,0-5.5-1.6-5.5-4.9v-2.2
		h1.9v2.2c0,2.2,1.2,3.3,3.7,3.3c2.4,0,3.6-1.1,3.6-3.2c0-0.6-0.1-1.1-0.3-1.7c-0.2-0.6-0.8-1-1.8-1.4l-3.5-1.2
		c-1.4-0.5-2.3-1-2.8-1.6c-0.5-0.6-0.7-1.6-0.7-3c0-3.2,1.8-4.9,5.5-4.9c3.6,0,5.5,1.6,5.5,4.9V48.3z"/>
	<path fill="#FFFFFF" d="M69.9,48.3h-1.9v-1.7c0-2.2-1.2-3.3-3.6-3.3c-2.4,0-3.6,1.1-3.6,3.4c0,0.8,0.1,1.3,0.4,1.7
		c0.3,0.4,0.7,0.7,1.4,0.9l4,1.3c1.2,0.4,2.1,1,2.6,1.7C69.7,53,70,54,70,55.4c0,3.3-1.8,4.9-5.5,4.9c-3.7,0-5.5-1.6-5.5-4.9v-2.2
		h1.9v2.2c0,2.2,1.2,3.3,3.7,3.3c2.4,0,3.6-1.1,3.6-3.2c0-0.6-0.1-1.1-0.3-1.7c-0.2-0.6-0.8-1-1.8-1.4l-3.5-1.2
		c-1.4-0.5-2.3-1-2.8-1.6c-0.5-0.6-0.7-1.6-0.7-3c0-3.2,1.8-4.9,5.5-4.9c3.6,0,5.5,1.6,5.5,4.9V48.3z"/>
	<path fill="#FFFFFF" d="M75.2,49.5h7.3v-2.9c0-2.2-1.2-3.3-3.6-3.3c-2.4,0-3.7,1.1-3.7,3.3V49.5z M84.3,53.3v2.1
		c0,3.3-1.8,4.9-5.5,4.9c-3.7,0-5.5-1.6-5.5-4.9v-8.8c0-3.3,1.8-4.9,5.5-4.9c3.7,0,5.5,1.6,5.5,4.9v4.7h-9.1v4.2
		c0,2.2,1.2,3.3,3.7,3.3c2.4,0,3.6-1.1,3.6-3.3v-2.1H84.3z"/>
	<path fill="#FFFFFF" d="M24.9,41.9h-3.6v1.9h3.6v2.8v3v3.1v2.7c0,2.2-1.2,3.3-3.6,3.3h-3.6v1.6h3.6c3.7,0,5.5-1.6,5.5-4.9v-2.7
		v-6.1v-4.7H24.9z"/>
</g>
</svg>
